<?xml version="1.0" encoding="utf-8"?>
<!-- Generator: Adobe Illustrator 22.1.0, SVG Export Plug-In . SVG Version: 6.00 Build 0)  -->
<svg version="1.1" id="Calque_1" xmlns="http://www.w3.org/2000/svg" xmlns:xlink="http://www.w3.org/1999/xlink" x="0px" y="0px"
	 viewBox="0 0 40 40" style="enable-background:new 0 0 40 40;" xml:space="preserve">
<style type="text/css">
	.st0{fill:#FFFFFF;}
</style>
<path class="st0" d="M31.4,14.3c-0.3-1-1.1-1.8-2.1-2.1c-1.9-0.5-9.3-0.5-9.3-0.5s-7.5,0-9.3,0.5c-1,0.3-1.8,1.1-2.1,2.1
	C8.1,16.1,8.1,20,8.1,20s0,3.9,0.5,5.7c0.3,1,1.1,1.8,2.1,2.1c1.9,0.5,9.3,0.5,9.3,0.5s7.5,0,9.3-0.5c1-0.3,1.8-1.1,2.1-2.1
	c0.5-1.9,0.5-5.7,0.5-5.7S31.9,16.1,31.4,14.3z M17.6,23.6v-7.2l6.2,3.6L17.6,23.6z"/>
</svg>
